<?xml version="1.0" encoding="UTF-8"?>
<svg version="1.1" xmlns="http://www.w3.org/2000/svg" width="512" height="512">
<path d="M0 0 C8.65092195 8.24410691 16.63704158 16.76007734 23.71972656 26.39208984 C24.96851581 28.08865019 26.24006244 29.7662449 27.51416016 31.44384766 C34.27460923 40.47909648 39.76601944 50.09397167 44.97119141 60.09228516 C45.3242334 60.7603418 45.67727539 61.42839844 46.04101562 62.11669922 C54.94094711 79.149694 60.93553996 97.82924253 64.90869141 116.59228516 C65.09584717 117.47279541 65.28300293 118.35330566 65.47583008 119.26049805 C67.2845995 128.51893062 67.97425078 137.62134925 68.97119141 147.09228516 C20.79119141 147.09228516 -27.38880859 147.09228516 -77.02880859 147.09228516 C-78.01880859 144.12228516 -79.00880859 141.15228516 -80.02880859 138.09228516 C-88.6798544 116.37579004 -102.08011558 100.67350686 -123.40380859 90.59619141 C-143.39656842 82.30178135 -164.92003256 81.94729619 -185.02880859 90.09228516 C-192.87785086 93.50706395 -199.51073532 97.56662529 -206.02880859 103.09228516 C-207.02654297 103.85605469 -207.02654297 103.85605469 -208.04443359 104.63525391 C-221.21728449 115.13723149 -227.86089683 131.58854988 -233.02880859 147.09228516 C-281.20880859 147.09228516 -329.38880859 147.09228516 -379.02880859 147.09228516 C-376.68559823 124.83178673 -376.68559823 124.83178673 -375.27880859 118.15478516 C-375.10961914 117.33816406 -374.94042969 116.52154297 -374.76611328 115.68017578 C-368.30807208 85.69559374 -356.03484746 56.96631095 -338.02880859 32.09228516 C-337.42818604 31.25842285 -337.42818604 31.25842285 -336.81542969 30.40771484 C-330.49993624 21.72422928 -323.45941213 13.83011557 -316.02880859 6.09228516 C-315.54154297 5.57778809 -315.05427734 5.06329102 -314.55224609 4.53320312 C-306.969943 -3.45203653 -298.85256773 -10.33334118 -290.02880859 -16.90771484 C-289.47499512 -17.32762695 -288.92118164 -17.74753906 -288.35058594 -18.18017578 C-211.84762006 -76.04867255 -103.46053566 -75.25361357 0 0 Z " fill="#000000" transform="translate(411.02880859375,92.90771484375)"/>
<path d="M0 0 C48.18 0 96.36 0 146 0 C146.99 2.97 147.98 5.94 149 9 C158.40340882 32.01989227 172.88386317 48.06482021 196 58 C215.95581861 65.7625387 237.7085908 64.08768748 257.09765625 55.65234375 C263.76509648 52.49142076 269.38486983 48.76019494 275 44 C275.66515625 43.49082031 276.3303125 42.98164063 277.015625 42.45703125 C289.09433479 32.8273512 296.06607467 18.12038528 300.203125 3.58984375 C301 1 301 1 302 0 C303.88561518 -0.09654727 305.77489455 -0.12187241 307.66297913 -0.12025452 C308.89282028 -0.12162918 310.12266144 -0.12300385 311.38977051 -0.12442017 C312.76513696 -0.12088056 314.14050317 -0.11724574 315.51586914 -0.11352539 C316.95442198 -0.11324352 318.39297496 -0.11340124 319.83152771 -0.1139679 C323.74871143 -0.11425589 327.66586479 -0.10835884 331.58304143 -0.10139394 C335.67233837 -0.09516074 339.76163593 -0.09455663 343.85093689 -0.09336853 C351.59992398 -0.09025511 359.34889703 -0.08204159 367.09787792 -0.07201904 C375.91756209 -0.06085822 384.73724691 -0.05534753 393.55693638 -0.05032361 C411.70463223 -0.03985898 429.85231499 -0.02225934 448 0 C447.69000822 3.20790608 447.37576853 6.41538267 447.06079102 9.62280273 C446.97355019 10.52614098 446.88630936 11.42947922 446.79642487 12.36019135 C446.17323208 18.67723518 445.34513708 24.86696112 443.9375 31.0625 C443.72617432 32.00109863 443.51484863 32.93969727 443.29711914 33.90673828 C434.8520308 69.68624135 419.02237516 102.18802042 395 130 C394.22011719 130.91007813 393.44023437 131.82015625 392.63671875 132.7578125 C375.01051721 152.80076928 354.57636947 169.48629387 330.94433594 181.97070312 C329.05972949 182.96838027 327.19046481 183.99118492 325.3203125 185.015625 C274.30888208 212.32572143 212.52771317 215.24054662 157.625 199.1875 C128.24630311 190.12140636 101.24037217 175.07290465 78 155 C77.19691406 154.30777344 76.39382812 153.61554688 75.56640625 152.90234375 C39.07105048 120.7280381 14.17681934 78.16898966 4.0625 30.5 C3.87526367 29.61932861 3.68802734 28.73865723 3.49511719 27.83129883 C1.68686429 18.57287499 0.99694313 9.47095975 0 0 Z " fill="#000000" transform="translate(32,272)"/>
<path d="M0 0 C10.23906578 7.73254248 18.72711365 17.59665562 20.6875 30.6875 C22.11678455 48.13329299 19.50517553 61.04058775 8.03125 74.65234375 C0.02533375 83.28136197 -10.26078398 88.35475631 -21.96875 89.00390625 C-38.65548452 89.56319388 -50.64291019 85.89777041 -63.0625 74.375 C-73.05541038 63.81645319 -75.82689781 52.26922077 -75.73217773 38.15722656 C-75.32139743 24.03483761 -69.475381 12.95884274 -59.25 3.28125 C-42.59283172 -10.42061423 -18.05009418 -11.9794347 0 0 Z " fill="#000000" transform="translate(283.3125,215.3125)"/>
</svg>
