<?xml version="1.0" encoding="UTF-8"?>
<svg version="1.1" xmlns="http://www.w3.org/2000/svg" width="512" height="512">
<path d="M0 0 C2.69495604 2.42701545 5.32310057 4.91692813 7.92578125 7.44238281 C9.55957779 9.01855163 11.21802078 10.56572455 12.87890625 12.11328125 C30.66697185 28.95138682 41.28988949 50.61793987 41.97631836 75.26391602 C42.0706397 86.42137955 41.17544953 96.39561424 37.50390625 106.96484375 C37.14167969 108.01414062 36.77945312 109.0634375 36.40625 110.14453125 C24.4708766 141.29787876 -2.4067268 157.65278758 -31.51171875 170.8125 C-56.14117105 181.60146417 -81.87941562 189.09616986 -108.49609375 192.96484375 C-109.29096191 193.0819873 -110.08583008 193.19913086 -110.90478516 193.31982422 C-174.33196494 202.14846786 -248.45761808 188.16365056 -300.7109375 150.13671875 C-319.61215312 135.39748189 -330.90767438 117.49507913 -336.10546875 94.23828125 C-338.42736617 74.78078088 -336.84287695 55.40169981 -327.49609375 37.96484375 C-327.00496094 37.00320313 -326.51382813 36.0415625 -326.0078125 35.05078125 C-321.96320126 27.57935142 -316.92415443 21.53395199 -311.01708984 15.51660156 C-309.45956759 13.92757886 -307.9249523 12.31843396 -306.390625 10.70703125 C-299.48622953 3.54095316 -292.20195151 -2.81295957 -284.21826172 -8.74853516 C-282.57825779 -9.973772 -280.96031841 -11.22837947 -279.34375 -12.484375 C-204.22272712 -69.77713669 -91.60247034 -67.41954781 0 0 Z " fill="#000000" transform="translate(403.49609375,312.03515625)"/>
<path d="M0 0 C1.59283447 1.34297809 3.17625698 2.69719977 4.75 4.0625 C5.56984375 4.73796875 6.3896875 5.4134375 7.234375 6.109375 C27.97774913 23.76056913 40.36415047 50.56993005 43.5 77.375 C43.60738638 78.93603134 43.69045942 80.49891258 43.75 82.0625 C43.78996094 82.94421875 43.82992187 83.8259375 43.87109375 84.734375 C44.58594311 115.85134697 33.13700603 144.10889594 12.05615234 166.79931641 C-7.81029522 187.3272898 -35.34121553 198.60536298 -63.68823242 199.39233398 C-91.79804915 199.79870392 -117.8894138 191.63845533 -139.25 173.0625 C-140.51457031 171.99708984 -140.51457031 171.99708984 -141.8046875 170.91015625 C-163.9192946 151.78673461 -175.92689396 123.83997613 -178.25 95.0625 C-180.00619265 63.78031843 -168.60195881 34.98546905 -147.9375 11.8125 C-110.45499187 -28.60082127 -43.42235959 -34.02094529 0 0 Z " fill="#000000" transform="translate(323.25,26.9375)"/>
</svg>
